%
M48
M72
T01C0.0160
T02C0.0236
%
T01
X2972Y940
X4042Y1150
X4472Y1150
X4472Y1590
X4042Y1590
X5462Y1800
X5872Y1730
X6352Y1770
X5262Y2130
X4932Y2350
X4382Y2490
X3972Y2680
X3462Y2810
X9232Y1530
X9682Y1680
X10942Y1290
X11422Y1290
X10042Y1170
X9832Y840
X12592Y2310
X12072Y2630
X11752Y2850
X11362Y2840
X10962Y2840
X10492Y2680
T02
X2442Y680
X2442Y1180
X2442Y1680
X2442Y2180
M30
