G75*
%MOIN*%
%OFA0B0*%
%FSLAX24Y24*%
%IPPOS*%
%LPD*%
%AMOC8*
5,1,8,0,0,1.08239X$1,22.5*
%
%ADD10R,0.0984X0.0984*%
%ADD11C,0.0138*%
%ADD12C,0.0376*%
%ADD13R,0.0354X0.0276*%
%ADD14R,0.0394X0.0433*%
%ADD15R,0.0276X0.0354*%
%ADD16C,0.0315*%
%ADD17C,0.0080*%
%ADD18C,0.0300*%
%ADD19C,0.0100*%
%ADD20C,0.0240*%
%ADD21C,0.0160*%
%ADD22C,0.0140*%
D10*
X004252Y001370D03*
X011182Y001540D03*
D11*
X011842Y001412D02*
X011980Y001412D01*
X011980Y001156D02*
X011842Y001156D01*
X011566Y000881D02*
X011566Y000743D01*
X011310Y000743D02*
X011310Y000881D01*
X011054Y000881D02*
X011054Y000743D01*
X010798Y000743D02*
X010798Y000881D01*
X010523Y001156D02*
X010385Y001156D01*
X010385Y001412D02*
X010523Y001412D01*
X010523Y001668D02*
X010385Y001668D01*
X010385Y001924D02*
X010523Y001924D01*
X010798Y002199D02*
X010798Y002337D01*
X011054Y002337D02*
X011054Y002199D01*
X011310Y002199D02*
X011310Y002337D01*
X011566Y002337D02*
X011566Y002199D01*
X011842Y001924D02*
X011980Y001924D01*
X011980Y001668D02*
X011842Y001668D01*
X005050Y001754D02*
X004912Y001754D01*
X004912Y001498D02*
X005050Y001498D01*
X005050Y001242D02*
X004912Y001242D01*
X004912Y000986D02*
X005050Y000986D01*
X004636Y000711D02*
X004636Y000573D01*
X004380Y000573D02*
X004380Y000711D01*
X004124Y000711D02*
X004124Y000573D01*
X003868Y000573D02*
X003868Y000711D01*
X003593Y000986D02*
X003455Y000986D01*
X003455Y001242D02*
X003593Y001242D01*
X003593Y001498D02*
X003455Y001498D01*
X003455Y001754D02*
X003593Y001754D01*
X003868Y002029D02*
X003868Y002167D01*
X004124Y002167D02*
X004124Y002029D01*
X004380Y002029D02*
X004380Y002167D01*
X004636Y002167D02*
X004636Y002029D01*
D12*
X002442Y000680D03*
X002442Y001180D03*
X002442Y001680D03*
X002442Y002180D03*
D13*
X002972Y001936D03*
X002972Y001424D03*
D14*
X005992Y001255D03*
X005992Y000585D03*
D15*
X009556Y002350D03*
X010068Y002350D03*
X007568Y002390D03*
X007056Y002390D03*
X006238Y002380D03*
X005726Y002380D03*
X005726Y002820D03*
X006238Y002820D03*
D16*
X005482Y001230D03*
X005422Y000750D03*
X012172Y000510D03*
X012562Y000870D03*
X012472Y001320D03*
D17*
X012112Y000990D01*
X011812Y000900D01*
X011724Y000812D01*
X011566Y000812D01*
X011310Y000812D02*
X011310Y000622D01*
X011362Y000540D01*
X011812Y000540D01*
X012022Y000780D01*
X012472Y000780D01*
X012562Y000870D01*
X012172Y000510D02*
X012112Y000390D01*
X011242Y000390D01*
X011054Y000638D01*
X011054Y000812D01*
X010798Y000812D02*
X010798Y000576D01*
X010762Y000540D01*
X010462Y000540D01*
X009832Y000840D01*
X010042Y001170D02*
X010438Y001140D01*
X010454Y001156D01*
X010822Y001410D02*
X010942Y001290D01*
X010822Y001410D02*
X010462Y001410D01*
X010460Y001412D01*
X010454Y001412D01*
X009682Y001680D02*
X009556Y001914D01*
X009556Y002350D01*
X009232Y002100D02*
X008992Y002340D01*
X007618Y002340D01*
X007568Y002390D01*
X007582Y002404D01*
X007582Y002670D01*
X007492Y002760D01*
X006802Y002760D01*
X006422Y002380D01*
X006238Y002380D01*
X006352Y001890D02*
X006852Y002390D01*
X007056Y002390D01*
X005262Y002130D02*
X005166Y001754D01*
X004981Y001754D01*
X005310Y001498D02*
X005462Y001800D01*
X005872Y001730D02*
X005932Y001550D01*
X005992Y001255D01*
X005482Y001230D02*
X005470Y001242D01*
X004981Y001242D01*
X004124Y001068D02*
X004042Y001150D01*
X003882Y000990D01*
X003862Y000990D01*
X003868Y000984D01*
X003868Y000642D01*
X004124Y000642D02*
X004124Y001068D01*
X004981Y000986D02*
X005186Y000986D01*
X005422Y000750D01*
X004636Y000642D02*
X004636Y000386D01*
X004642Y000380D01*
X004380Y000388D02*
X004372Y000380D01*
X004380Y000388D02*
X004380Y000642D01*
X003272Y000720D02*
X003272Y001480D01*
X003470Y001508D01*
X003524Y001498D01*
X002972Y001424D02*
X002972Y000940D01*
X003272Y000720D02*
X003042Y000560D01*
X002912Y000560D01*
X002442Y001180D01*
X002442Y001680D02*
X002492Y001680D01*
X002792Y001980D01*
X002986Y001980D01*
X002972Y001936D01*
X003524Y001754D01*
X003868Y002098D02*
X003868Y002356D01*
X003462Y002810D01*
X003972Y002680D02*
X004124Y002310D01*
X004124Y002098D01*
X004380Y002098D02*
X004380Y002318D01*
X004382Y002490D01*
X004892Y002330D02*
X004932Y002350D01*
X004892Y002330D02*
X004692Y002330D01*
X004636Y002274D01*
X004636Y002098D01*
X006352Y001890D02*
X006352Y001770D01*
X005310Y001498D02*
X004981Y001498D01*
X009232Y001530D02*
X009232Y002100D01*
X010068Y002014D02*
X010162Y001920D01*
X010450Y001920D01*
X010454Y001924D01*
X010068Y002014D02*
X010068Y002350D01*
X010492Y002680D02*
X010798Y002580D01*
X010798Y002268D01*
X011054Y002268D02*
X011054Y002718D01*
X010962Y002840D01*
X011362Y002840D02*
X011310Y002548D01*
X011310Y002268D01*
X011566Y002268D02*
X011578Y002580D01*
X011752Y002850D01*
X012072Y002630D02*
X012222Y002310D01*
X012232Y001930D01*
X011917Y001930D01*
X011911Y001924D01*
X012262Y001680D02*
X012592Y001800D01*
X012592Y002310D01*
X012262Y001680D02*
X011923Y001680D01*
X011911Y001668D01*
D18*
X011422Y001290D03*
X010942Y001290D03*
X010042Y001170D03*
X009832Y000840D03*
X009232Y001530D03*
X009682Y001680D03*
X012592Y002310D03*
X012072Y002630D03*
X011752Y002850D03*
X011362Y002840D03*
X010962Y002840D03*
X010492Y002680D03*
X006352Y001770D03*
X005872Y001730D03*
X005462Y001800D03*
X004472Y001590D03*
X004042Y001590D03*
X004042Y001150D03*
X004472Y001150D03*
X002972Y000940D03*
X005262Y002130D03*
X004932Y002350D03*
X004382Y002490D03*
X003972Y002680D03*
X003462Y002810D03*
D19*
X005726Y002820D02*
X005726Y002380D01*
X005726Y002156D01*
X005872Y002010D01*
X005872Y001730D01*
X006238Y002380D02*
X006238Y002820D01*
X010436Y001650D02*
X010454Y001668D01*
X010436Y001650D02*
X010132Y001560D01*
X005992Y000585D02*
X005707Y000570D01*
X005542Y000390D01*
X005232Y000380D01*
X004642Y000380D01*
X004372Y000380D01*
X002692Y000380D01*
X002442Y000680D01*
D20*
X005992Y000585D02*
X009368Y000585D01*
D21*
X009442Y000960D01*
X009592Y001260D01*
D22*
X010132Y001560D01*
M02*
