G75*
%MOIN*%
%OFA0B0*%
%FSLAX24Y24*%
%IPPOS*%
%LPD*%
%AMOC8*
5,1,8,0,0,1.08239X$1,22.5*
%
%ADD10R,0.1044X0.1044*%
%ADD11C,0.0198*%
%ADD12C,0.0436*%
%ADD13R,0.0414X0.0336*%
%ADD14R,0.0454X0.0493*%
%ADD15R,0.0336X0.0414*%
%ADD16C,0.0375*%
%ADD17C,0.0360*%
D10*
X004252Y001370D03*
X011182Y001540D03*
D11*
X011842Y001412D02*
X011980Y001412D01*
X011980Y001156D02*
X011842Y001156D01*
X011566Y000881D02*
X011566Y000743D01*
X011310Y000743D02*
X011310Y000881D01*
X011054Y000881D02*
X011054Y000743D01*
X010798Y000743D02*
X010798Y000881D01*
X010523Y001156D02*
X010385Y001156D01*
X010385Y001412D02*
X010523Y001412D01*
X010523Y001668D02*
X010385Y001668D01*
X010385Y001924D02*
X010523Y001924D01*
X010798Y002199D02*
X010798Y002337D01*
X011054Y002337D02*
X011054Y002199D01*
X011310Y002199D02*
X011310Y002337D01*
X011566Y002337D02*
X011566Y002199D01*
X011842Y001924D02*
X011980Y001924D01*
X011980Y001668D02*
X011842Y001668D01*
X005050Y001754D02*
X004912Y001754D01*
X004912Y001498D02*
X005050Y001498D01*
X005050Y001242D02*
X004912Y001242D01*
X004912Y000986D02*
X005050Y000986D01*
X004636Y000711D02*
X004636Y000573D01*
X004380Y000573D02*
X004380Y000711D01*
X004124Y000711D02*
X004124Y000573D01*
X003868Y000573D02*
X003868Y000711D01*
X003593Y000986D02*
X003455Y000986D01*
X003455Y001242D02*
X003593Y001242D01*
X003593Y001498D02*
X003455Y001498D01*
X003455Y001754D02*
X003593Y001754D01*
X003868Y002029D02*
X003868Y002167D01*
X004124Y002167D02*
X004124Y002029D01*
X004380Y002029D02*
X004380Y002167D01*
X004636Y002167D02*
X004636Y002029D01*
D12*
X002442Y000680D03*
X002442Y001180D03*
X002442Y001680D03*
X002442Y002180D03*
D13*
X002972Y001936D03*
X002972Y001424D03*
D14*
X005992Y001255D03*
X005992Y000585D03*
D15*
X009556Y002350D03*
X010068Y002350D03*
X007568Y002390D03*
X007056Y002390D03*
X006238Y002380D03*
X005726Y002380D03*
X005726Y002820D03*
X006238Y002820D03*
D16*
X005482Y001230D03*
X005422Y000750D03*
X012172Y000510D03*
X012562Y000870D03*
X012472Y001320D03*
D17*
X011422Y001290D03*
X010942Y001290D03*
X010042Y001170D03*
X009832Y000840D03*
X009232Y001530D03*
X009682Y001680D03*
X012592Y002310D03*
X012072Y002630D03*
X011752Y002850D03*
X011362Y002840D03*
X010962Y002840D03*
X010492Y002680D03*
X006352Y001770D03*
X005872Y001730D03*
X005462Y001800D03*
X004472Y001590D03*
X004042Y001590D03*
X004042Y001150D03*
X004472Y001150D03*
X002972Y000940D03*
X005262Y002130D03*
X004932Y002350D03*
X004382Y002490D03*
X003972Y002680D03*
X003462Y002810D03*
M02*
