G75*
%MOIN*%
%OFA0B0*%
%FSLAX24Y24*%
%IPPOS*%
%LPD*%
%AMOC8*
5,1,8,0,0,1.08239X$1,22.5*
%
%ADD10C,0.0000*%
%ADD11C,0.0020*%
%ADD12C,0.0080*%
%ADD13C,0.0040*%
D10*
X001942Y000180D02*
X001942Y003180D01*
X012942Y003180D01*
X012942Y000180D01*
X001942Y000180D01*
D11*
X002963Y000417D02*
X003010Y000370D01*
X003103Y000370D01*
X003150Y000417D01*
X003150Y000604D01*
X003103Y000650D01*
X003010Y000650D01*
X002963Y000604D01*
X003239Y000604D02*
X003286Y000650D01*
X003379Y000650D01*
X003426Y000604D01*
X003426Y000417D01*
X003379Y000370D01*
X003286Y000370D01*
X003239Y000417D01*
X003515Y000463D02*
X003515Y000650D01*
X003557Y000600D02*
X003744Y000600D01*
X003603Y000740D01*
X003603Y000460D01*
X003515Y000463D02*
X003609Y000370D01*
X003702Y000463D01*
X003702Y000650D01*
X003926Y000740D02*
X003926Y000460D01*
X003833Y000460D02*
X004020Y000460D01*
X004109Y000460D02*
X004296Y000460D01*
X004109Y000647D01*
X004109Y000694D01*
X004156Y000740D01*
X004249Y000740D01*
X004296Y000694D01*
X004385Y000694D02*
X004432Y000740D01*
X004526Y000740D01*
X004572Y000694D01*
X004572Y000507D01*
X004385Y000694D01*
X004385Y000507D01*
X004432Y000460D01*
X004526Y000460D01*
X004572Y000507D01*
X004662Y000460D02*
X004848Y000460D01*
X004938Y000460D02*
X005125Y000460D01*
X005031Y000460D02*
X005031Y000740D01*
X005125Y000647D01*
X005490Y000740D02*
X005677Y000553D01*
X005630Y000600D02*
X005490Y000460D01*
X005677Y000460D02*
X005677Y000740D01*
X005767Y000694D02*
X005813Y000740D01*
X005953Y000740D01*
X005953Y000460D01*
X005813Y000460D01*
X005767Y000507D01*
X005767Y000694D01*
X006043Y000694D02*
X006043Y000647D01*
X006090Y000600D01*
X006230Y000600D01*
X006090Y000600D02*
X006043Y000553D01*
X006043Y000507D01*
X006090Y000460D01*
X006230Y000460D01*
X006230Y000740D01*
X006090Y000740D01*
X006043Y000694D01*
X006689Y000740D02*
X006689Y000460D01*
X006782Y000460D02*
X006595Y000460D01*
X006872Y000553D02*
X006872Y000740D01*
X007058Y000740D02*
X007058Y000553D01*
X006965Y000460D01*
X006872Y000553D01*
X006782Y000647D02*
X006689Y000740D01*
X007425Y000647D02*
X007471Y000647D01*
X007565Y000553D01*
X007654Y000553D02*
X007794Y000553D01*
X007841Y000507D01*
X007794Y000460D01*
X007654Y000460D01*
X007654Y000600D01*
X007701Y000647D01*
X007794Y000647D01*
X007930Y000647D02*
X007930Y000694D01*
X007977Y000740D01*
X008117Y000740D01*
X008117Y000460D01*
X007977Y000460D01*
X007930Y000507D01*
X007930Y000553D01*
X007977Y000600D01*
X008117Y000600D01*
X008207Y000600D02*
X008207Y000507D01*
X008253Y000460D01*
X008393Y000460D01*
X008483Y000460D02*
X008483Y000600D01*
X008530Y000647D01*
X008576Y000600D01*
X008576Y000460D01*
X008670Y000460D02*
X008670Y000647D01*
X008623Y000647D01*
X008576Y000600D01*
X008759Y000600D02*
X008759Y000553D01*
X008946Y000553D01*
X008946Y000507D02*
X008946Y000600D01*
X008899Y000647D01*
X008806Y000647D01*
X008759Y000600D01*
X008899Y000460D02*
X008946Y000507D01*
X008899Y000460D02*
X008806Y000460D01*
X009129Y000460D02*
X009129Y000740D01*
X009222Y000740D02*
X009035Y000740D01*
X008393Y000647D02*
X008253Y000647D01*
X008207Y000600D01*
X008393Y000647D02*
X008393Y000367D01*
X007977Y000600D02*
X007930Y000647D01*
X007565Y000647D02*
X007565Y000460D01*
X004848Y000647D02*
X004755Y000740D01*
X004755Y000460D01*
X004020Y000647D02*
X003926Y000740D01*
X003579Y001240D02*
X003579Y001520D01*
X003672Y001520D02*
X003485Y001520D01*
X003396Y001474D02*
X003396Y001287D01*
X003349Y001240D01*
X003256Y001240D01*
X003209Y001287D01*
X003120Y001240D02*
X003120Y001520D01*
X003209Y001474D02*
X003256Y001520D01*
X003349Y001520D01*
X003396Y001474D01*
X003120Y001333D02*
X002933Y001520D01*
X003056Y001660D02*
X003056Y001940D01*
X002963Y001940D02*
X003150Y001940D01*
X003239Y001894D02*
X003286Y001940D01*
X003379Y001940D01*
X003426Y001894D01*
X003426Y001847D01*
X003379Y001800D01*
X003286Y001800D01*
X003239Y001753D01*
X003239Y001707D01*
X003286Y001660D01*
X003379Y001660D01*
X003426Y001707D01*
X003515Y001660D02*
X003609Y001753D01*
X003562Y001753D02*
X003702Y001753D01*
X003562Y001753D02*
X003515Y001800D01*
X003515Y001894D01*
X003562Y001940D01*
X003702Y001940D01*
X003702Y001660D01*
X003073Y001380D02*
X002933Y001240D01*
X003070Y002140D02*
X003023Y002187D01*
X003023Y002374D01*
X003070Y002420D01*
X003210Y002420D01*
X003210Y002140D01*
X003070Y002140D01*
X003299Y002140D02*
X003299Y002420D01*
X003486Y002420D02*
X003299Y002140D01*
X003486Y002140D02*
X003486Y002420D01*
X003575Y002374D02*
X003622Y002420D01*
X003715Y002420D01*
X003762Y002374D01*
X003762Y002187D01*
X003715Y002140D01*
X003622Y002140D01*
X003575Y002187D01*
X003575Y002280D01*
X003669Y002280D01*
D12*
X006907Y002071D02*
X008718Y002071D01*
X008718Y000969D02*
X006907Y000969D01*
D13*
X007313Y002213D02*
X007620Y002213D01*
X007773Y002213D02*
X008080Y002213D01*
X008080Y002673D01*
X007620Y002519D02*
X007466Y002673D01*
X007466Y002213D01*
M02*
