G75*
%MOIN*%
%OFA0B0*%
%FSLAX24Y24*%
%IPPOS*%
%LPD*%
%AMOC8*
5,1,8,0,0,1.08239X$1,22.5*
%
%ADD10C,0.0376*%
%ADD11R,0.0787X0.0669*%
%ADD12C,0.0300*%
%ADD13C,0.0080*%
%ADD14C,0.0160*%
D10*
X002442Y000680D03*
X002442Y001180D03*
X002442Y001680D03*
X002442Y002180D03*
D11*
X007025Y001520D03*
X008600Y001520D03*
D12*
X009232Y001530D03*
X009682Y001680D03*
X010942Y001290D03*
X011422Y001290D03*
X010042Y001170D03*
X009832Y000840D03*
X006352Y001770D03*
X005872Y001730D03*
X005462Y001800D03*
X004472Y001590D03*
X004042Y001590D03*
X004042Y001150D03*
X004472Y001150D03*
X002972Y000940D03*
X005262Y002130D03*
X004932Y002350D03*
X004382Y002490D03*
X003972Y002680D03*
X003462Y002810D03*
X010492Y002680D03*
X010962Y002840D03*
X011362Y002840D03*
X011752Y002850D03*
X012072Y002630D03*
X012592Y002310D03*
D13*
X012352Y002310D01*
X011752Y001710D01*
X010072Y001710D01*
X010042Y001740D01*
X009672Y002080D01*
X005692Y002080D01*
X005492Y001820D01*
X005462Y001800D01*
X006352Y001770D02*
X006802Y001650D01*
X007612Y000840D01*
X009832Y000840D01*
X010042Y001170D02*
X009472Y001170D01*
X009232Y001410D01*
X009232Y001530D01*
X009222Y001520D01*
X008600Y001520D01*
X009802Y002280D02*
X010152Y001930D01*
X011612Y001930D01*
X012072Y002630D01*
X011752Y002850D02*
X011322Y002180D01*
X010252Y002180D01*
X009982Y002450D01*
X005122Y002450D01*
X004932Y002350D01*
X005262Y002130D02*
X005482Y002280D01*
X009802Y002280D01*
X010102Y002650D02*
X010352Y002380D01*
X011142Y002380D01*
X011362Y002840D01*
X010962Y002840D02*
X010832Y002970D01*
X003622Y002970D01*
X003462Y002810D01*
X003952Y002680D02*
X004142Y002820D01*
X010392Y002820D01*
X010492Y002680D01*
X010102Y002650D02*
X004492Y002650D01*
X004382Y002490D01*
X003972Y002680D02*
X003952Y002680D01*
X006975Y001680D02*
X007025Y001520D01*
X002972Y000940D02*
X002642Y000680D01*
X002442Y000680D01*
D14*
X002736Y000505D02*
X002769Y000538D01*
X002903Y000644D01*
X002913Y000640D01*
X003032Y000640D01*
X003142Y000686D01*
X003227Y000770D01*
X003272Y000880D01*
X003272Y001000D01*
X003227Y001110D01*
X003142Y001194D01*
X003032Y001240D01*
X002913Y001240D01*
X002802Y001194D01*
X002780Y001172D01*
X002780Y001247D01*
X002729Y001372D01*
X002670Y001430D01*
X002729Y001488D01*
X002780Y001613D01*
X002780Y001747D01*
X002729Y001872D01*
X002692Y001909D01*
X002728Y001945D01*
X002768Y002006D01*
X002796Y002073D01*
X002810Y002144D01*
X002810Y002180D01*
X002442Y002180D01*
X002442Y002548D01*
X002406Y002548D01*
X002335Y002534D01*
X002268Y002506D01*
X002208Y002466D01*
X002172Y002431D01*
X002172Y002950D01*
X003195Y002950D01*
X003162Y002870D01*
X003162Y002750D01*
X003208Y002640D01*
X003292Y002556D01*
X003403Y002510D01*
X003522Y002510D01*
X003632Y002556D01*
X003679Y002603D01*
X003718Y002510D01*
X003802Y002426D01*
X003913Y002380D01*
X004032Y002380D01*
X004093Y002405D01*
X004128Y002320D01*
X004212Y002236D01*
X004323Y002190D01*
X004442Y002190D01*
X004552Y002236D01*
X004632Y002316D01*
X004632Y002290D01*
X004678Y002180D01*
X004762Y002096D01*
X004873Y002050D01*
X004971Y002050D01*
X005008Y001960D01*
X005092Y001876D01*
X005162Y001847D01*
X005162Y001740D01*
X005208Y001630D01*
X005292Y001546D01*
X005403Y001500D01*
X005522Y001500D01*
X005632Y001546D01*
X005717Y001630D01*
X005762Y001740D01*
X005762Y001859D01*
X005786Y001890D01*
X005992Y001890D01*
X005992Y000670D01*
X006062Y000600D01*
X009492Y000600D01*
X009542Y000650D01*
X009598Y000650D01*
X009662Y000586D01*
X009773Y000540D01*
X009892Y000540D01*
X010002Y000586D01*
X010087Y000670D01*
X010132Y000780D01*
X010132Y000883D01*
X010212Y000916D01*
X010297Y001000D01*
X010342Y001110D01*
X010342Y001230D01*
X010297Y001340D01*
X010212Y001424D01*
X010102Y001470D01*
X009983Y001470D01*
X009872Y001424D01*
X009808Y001360D01*
X009562Y001360D01*
X009562Y001890D01*
X009598Y001890D01*
X009911Y001603D01*
X009993Y001520D01*
X011831Y001520D01*
X011942Y001631D01*
X011942Y001631D01*
X012394Y002084D01*
X012422Y002056D01*
X012533Y002010D01*
X012652Y002010D01*
X012712Y002035D01*
X012712Y000410D01*
X002650Y000410D01*
X002729Y000488D01*
X002736Y000505D01*
X002732Y000497D02*
X012712Y000497D01*
X012712Y000656D02*
X010072Y000656D01*
X010132Y000814D02*
X012712Y000814D01*
X012712Y000973D02*
X010269Y000973D01*
X010342Y001131D02*
X012712Y001131D01*
X012712Y001290D02*
X010317Y001290D01*
X010155Y001448D02*
X012712Y001448D01*
X012712Y001607D02*
X011917Y001607D01*
X012076Y001765D02*
X012712Y001765D01*
X012712Y001924D02*
X012234Y001924D01*
X012393Y002082D02*
X012396Y002082D01*
X009907Y001607D02*
X009562Y001607D01*
X009562Y001448D02*
X009929Y001448D01*
X009734Y001765D02*
X009562Y001765D01*
X005992Y001765D02*
X005762Y001765D01*
X005162Y001765D02*
X002773Y001765D01*
X002706Y001924D02*
X005044Y001924D01*
X004795Y002082D02*
X002798Y002082D01*
X002810Y002180D02*
X002810Y002216D01*
X002796Y002287D01*
X002768Y002354D01*
X002728Y002415D01*
X002677Y002466D01*
X002617Y002506D01*
X002550Y002534D01*
X002478Y002548D01*
X002442Y002548D01*
X002442Y002180D01*
X002442Y002180D01*
X002810Y002180D01*
X002805Y002241D02*
X004207Y002241D01*
X004557Y002241D02*
X004653Y002241D01*
X004095Y002399D02*
X004078Y002399D01*
X003867Y002399D02*
X002739Y002399D01*
X002442Y002399D02*
X002442Y002399D01*
X002442Y002241D02*
X002442Y002241D01*
X002442Y002180D02*
X002442Y002180D01*
X002172Y002558D02*
X003290Y002558D01*
X003634Y002558D02*
X003698Y002558D01*
X003176Y002716D02*
X002172Y002716D01*
X002172Y002875D02*
X003164Y002875D01*
X002778Y001607D02*
X005231Y001607D01*
X005693Y001607D02*
X005992Y001607D01*
X005992Y001448D02*
X002688Y001448D01*
X002763Y001290D02*
X005992Y001290D01*
X005992Y001131D02*
X003205Y001131D01*
X003272Y000973D02*
X005992Y000973D01*
X005992Y000814D02*
X003245Y000814D01*
X003069Y000656D02*
X006007Y000656D01*
M02*
