G75*
%MOIN*%
%OFA0B0*%
%FSLAX24Y24*%
%IPPOS*%
%LPD*%
%AMOC8*
5,1,8,0,0,1.08239X$1,22.5*
%
%ADD10C,0.0000*%
%ADD11C,0.0030*%
%ADD12C,0.0020*%
D10*
X001942Y000180D02*
X001942Y003180D01*
X012942Y003180D01*
X012942Y000180D01*
X001942Y000180D01*
D11*
X003481Y000598D02*
X003481Y000803D01*
X003481Y000598D02*
X003685Y000598D01*
X004819Y000598D02*
X005024Y000598D01*
X005024Y000803D01*
X004847Y000709D02*
X004849Y000725D01*
X004855Y000740D01*
X004864Y000753D01*
X004876Y000764D01*
X004890Y000772D01*
X004906Y000776D01*
X004922Y000776D01*
X004938Y000772D01*
X004952Y000764D01*
X004964Y000753D01*
X004973Y000740D01*
X004979Y000725D01*
X004981Y000709D01*
X004979Y000693D01*
X004973Y000678D01*
X004964Y000665D01*
X004952Y000654D01*
X004938Y000646D01*
X004922Y000642D01*
X004906Y000642D01*
X004890Y000646D01*
X004876Y000654D01*
X004864Y000665D01*
X004855Y000678D01*
X004849Y000693D01*
X004847Y000709D01*
X005024Y001937D02*
X005024Y002142D01*
X004819Y002142D01*
X003685Y002142D02*
X003481Y002142D01*
X003481Y001937D01*
X010411Y002107D02*
X010411Y002312D01*
X010615Y002312D01*
X011749Y002312D02*
X011954Y002312D01*
X011954Y002107D01*
X011954Y000973D02*
X011954Y000768D01*
X011749Y000768D01*
X010615Y000768D02*
X010411Y000768D01*
X010411Y000973D01*
X010454Y000879D02*
X010456Y000895D01*
X010462Y000910D01*
X010471Y000923D01*
X010483Y000934D01*
X010497Y000942D01*
X010513Y000946D01*
X010529Y000946D01*
X010545Y000942D01*
X010559Y000934D01*
X010571Y000923D01*
X010580Y000910D01*
X010586Y000895D01*
X010588Y000879D01*
X010586Y000863D01*
X010580Y000848D01*
X010571Y000835D01*
X010559Y000824D01*
X010545Y000816D01*
X010529Y000812D01*
X010513Y000812D01*
X010497Y000816D01*
X010483Y000824D01*
X010471Y000835D01*
X010462Y000848D01*
X010456Y000863D01*
X010454Y000879D01*
D12*
X010490Y000681D02*
X010490Y000401D01*
X010397Y000401D02*
X010583Y000401D01*
X010307Y000448D02*
X010260Y000401D01*
X010167Y000401D01*
X010120Y000448D01*
X010120Y000681D01*
X010307Y000681D02*
X010307Y000448D01*
X010397Y000588D02*
X010490Y000681D01*
X009150Y000658D02*
X008963Y000471D01*
X009009Y000518D02*
X009150Y000378D01*
X008963Y000378D02*
X008963Y000658D01*
X008687Y000658D02*
X008687Y000378D01*
X008873Y000378D01*
X008597Y000424D02*
X008550Y000378D01*
X008457Y000378D01*
X008410Y000424D01*
X008410Y000611D01*
X008457Y000658D01*
X008550Y000658D01*
X008597Y000611D01*
X008321Y000658D02*
X008134Y000658D01*
X008227Y000658D02*
X008227Y000378D01*
X007841Y000544D02*
X007795Y000498D01*
X007701Y000498D01*
X007655Y000544D01*
X007841Y000731D01*
X007841Y000544D01*
X007655Y000544D02*
X007655Y000731D01*
X007701Y000778D01*
X007795Y000778D01*
X007841Y000731D01*
X008257Y000768D02*
X008257Y001048D01*
X008164Y001048D02*
X008351Y001048D01*
X008440Y001048D02*
X008580Y001048D01*
X008627Y001001D01*
X008627Y000814D01*
X008580Y000768D01*
X008440Y000768D01*
X008440Y001048D01*
X008410Y001158D02*
X008597Y001158D01*
X008687Y001158D02*
X008687Y001438D01*
X008873Y001158D01*
X008873Y001438D01*
X008597Y001438D02*
X008410Y001438D01*
X008410Y001158D01*
X008227Y001158D02*
X008227Y001438D01*
X008134Y001438D02*
X008321Y001438D01*
X008410Y001298D02*
X008504Y001298D01*
X007778Y001258D02*
X007778Y000978D01*
X007685Y000978D02*
X007871Y000978D01*
X007593Y000978D02*
X007547Y000978D01*
X007547Y001024D01*
X007593Y001024D01*
X007593Y000978D01*
X007457Y000978D02*
X007270Y000978D01*
X007364Y000978D02*
X007364Y001258D01*
X007270Y001164D01*
X007181Y001118D02*
X007134Y001071D01*
X006994Y001071D01*
X006994Y000978D02*
X006994Y001258D01*
X007134Y001258D01*
X007181Y001211D01*
X007181Y001118D01*
X007685Y001164D02*
X007778Y001258D01*
X008717Y000954D02*
X008810Y001048D01*
X008903Y000954D01*
X008903Y000768D01*
X008717Y000768D02*
X008717Y000954D01*
X008717Y000908D02*
X008903Y000908D01*
X008993Y001048D02*
X009180Y001048D01*
X009086Y001048D02*
X009086Y000768D01*
X007563Y000544D02*
X007563Y000498D01*
X007517Y000498D01*
X007517Y000544D01*
X007563Y000544D01*
X007427Y000498D02*
X007240Y000498D01*
X007334Y000498D02*
X007334Y000778D01*
X007240Y000684D01*
X007151Y000731D02*
X007151Y000638D01*
X007104Y000591D01*
X006964Y000591D01*
X006964Y000498D02*
X006964Y000778D01*
X007104Y000778D01*
X007151Y000731D01*
X006619Y000670D02*
X006619Y000390D01*
X006526Y000390D02*
X006713Y000390D01*
X006437Y000437D02*
X006390Y000390D01*
X006296Y000390D01*
X006250Y000437D01*
X006250Y000624D01*
X006296Y000670D01*
X006390Y000670D01*
X006437Y000624D01*
X006526Y000577D02*
X006619Y000670D01*
X006666Y001780D02*
X006760Y001780D01*
X006807Y001827D01*
X006896Y001827D02*
X006943Y001780D01*
X007036Y001780D01*
X007083Y001827D01*
X007083Y001873D01*
X007036Y001920D01*
X006989Y001920D01*
X007036Y001920D02*
X007083Y001967D01*
X007083Y002014D01*
X007036Y002060D01*
X006943Y002060D01*
X006896Y002014D01*
X006807Y002014D02*
X006760Y002060D01*
X006666Y002060D01*
X006620Y002014D01*
X006620Y001827D01*
X006666Y001780D01*
X007852Y002307D02*
X007899Y002260D01*
X007992Y002260D01*
X008039Y002307D01*
X008128Y002260D02*
X008315Y002447D01*
X008315Y002494D01*
X008269Y002540D01*
X008175Y002540D01*
X008128Y002494D01*
X008039Y002494D02*
X007992Y002540D01*
X007899Y002540D01*
X007852Y002494D01*
X007852Y002307D01*
X008128Y002260D02*
X008315Y002260D01*
X008792Y002510D02*
X008792Y002790D01*
X008932Y002790D01*
X008979Y002744D01*
X008979Y002650D01*
X008932Y002603D01*
X008792Y002603D01*
X008886Y002603D02*
X008979Y002510D01*
X009068Y002510D02*
X009255Y002697D01*
X009255Y002744D01*
X009209Y002790D01*
X009115Y002790D01*
X009068Y002744D01*
X009068Y002510D02*
X009255Y002510D01*
X005395Y002757D02*
X005349Y002710D01*
X005255Y002710D01*
X005208Y002757D01*
X005119Y002710D02*
X005026Y002803D01*
X005072Y002803D02*
X004932Y002803D01*
X005072Y002803D02*
X005119Y002850D01*
X005119Y002944D01*
X005072Y002990D01*
X004932Y002990D01*
X004932Y002710D01*
X005302Y002850D02*
X005349Y002850D01*
X005395Y002803D01*
X005395Y002757D01*
X005349Y002850D02*
X005395Y002897D01*
X005395Y002944D01*
X005349Y002990D01*
X005255Y002990D01*
X005208Y002944D01*
X003453Y002424D02*
X003407Y002471D01*
X003313Y002471D01*
X003267Y002424D01*
X003177Y002471D02*
X003177Y002238D01*
X003130Y002191D01*
X003037Y002191D01*
X002990Y002238D01*
X002990Y002471D01*
X002992Y002438D02*
X002712Y002438D01*
X002712Y002578D01*
X002759Y002624D01*
X002852Y002624D01*
X002899Y002578D01*
X002899Y002438D01*
X002899Y002531D02*
X002992Y002624D01*
X002992Y002714D02*
X002992Y002901D01*
X002992Y002807D02*
X002712Y002807D01*
X002805Y002714D01*
X003453Y002424D02*
X003453Y002378D01*
X003267Y002191D01*
X003453Y002191D01*
M02*
